<svg width="25" height="24" viewBox="0 0 25 24" fill="none" xmlns="http://www.w3.org/2000/svg">
<path d="M20.2286 13.18V11C20.2286 8.87827 19.4038 6.84344 17.9356 5.34315C16.4675 3.84285 14.4763 3 12.4 3C10.3237 3 8.33251 3.84285 6.86437 5.34315C5.39623 6.84344 4.57143 8.87827 4.57143 11V13.18C4.00039 13.3863 3.50577 13.7681 3.15538 14.2729C2.80499 14.7778 2.61599 15.3811 2.61429 16V18C2.61429 18.7956 2.92359 19.5587 3.47414 20.1213C4.02469 20.6839 4.7714 21 5.55 21H8.48572C8.74525 21 8.99415 20.8946 9.17767 20.7071C9.36119 20.5196 9.46429 20.2652 9.46429 20V14C9.46429 13.7348 9.36119 13.4804 9.17767 13.2929C8.99415 13.1054 8.74525 13 8.48572 13H6.52857V11C6.52857 9.4087 7.14717 7.88258 8.24828 6.75736C9.34938 5.63214 10.8428 5 12.4 5C13.9572 5 15.4506 5.63214 16.5517 6.75736C17.6528 7.88258 18.2714 9.4087 18.2714 11V13H16.3143C16.0548 13 15.8059 13.1054 15.6223 13.2929C15.4388 13.4804 15.3357 13.7348 15.3357 14V20C15.3357 20.2652 15.4388 20.5196 15.6223 20.7071C15.8059 20.8946 16.0548 21 16.3143 21H19.25C20.0286 21 20.7753 20.6839 21.3259 20.1213C21.8764 19.5587 22.1857 18.7956 22.1857 18V16C22.184 15.3811 21.995 14.7778 21.6446 14.2729C21.2942 13.7681 20.7996 13.3863 20.2286 13.18ZM7.50715 15V19H5.55C5.29047 19 5.04157 18.8946 4.85805 18.7071C4.67453 18.5196 4.57143 18.2652 4.57143 18V16C4.57143 15.7348 4.67453 15.4804 4.85805 15.2929C5.04157 15.1054 5.29047 15 5.55 15H7.50715ZM20.2286 18C20.2286 18.2652 20.1255 18.5196 19.942 18.7071C19.7584 18.8946 19.5095 19 19.25 19H17.2929V15H19.25C19.5095 15 19.7584 15.1054 19.942 15.2929C20.1255 15.4804 20.2286 15.7348 20.2286 16V18Z" fill="#77C59E"/>
</svg>
